<?xml version="1.0" standalone="no"?><!DOCTYPE svg PUBLIC "-//W3C//DTD SVG 1.1//EN" "http://www.w3.org/Graphics/SVG/1.1/DTD/svg11.dtd"><svg t="1586662166568" class="icon" viewBox="0 0 1024 1024" version="1.1" xmlns="http://www.w3.org/2000/svg" p-id="4580" xmlns:xlink="http://www.w3.org/1999/xlink" width="200" height="200"><defs><style type="text/css"></style></defs><path d="M512 512m-512 0a512 512 0 1 0 1024 0 512 512 0 1 0-1024 0Z" fill="#FDEBED" p-id="4581"></path><path d="M678.4 742.4c-35.84 0-64-28.16-64-64v-6.4L482.56 614.4c-42.24 47.36-115.2 51.2-162.56 7.68-47.36-42.24-51.2-115.2-7.68-162.56 38.4-42.24 101.12-49.92 148.48-19.2l96-71.68c-5.12-6.4-6.4-15.36-6.4-23.04 0-35.84 28.16-64 64-64s64 28.16 64 64-28.16 64-64 64c-16.64 0-33.28-6.4-44.8-17.92l-89.6 66.56c35.84 35.84 42.24 92.16 17.92 135.68l125.44 53.76c16.64-30.72 56.32-42.24 87.04-25.6 30.72 16.64 42.24 56.32 25.6 87.04-12.8 20.48-34.56 33.28-57.6 33.28z" fill="#EC3A4E" p-id="4582"></path></svg>